<svg width="28" height="28" viewBox="0 0 28 28" fill="none" xmlns="http://www.w3.org/2000/svg">
<path d="M23.333 14V8.16669H25.6663V15.1667H23.333M23.333 19.8334H25.6663V17.5H23.333M11.6663 15.1667C14.7813 15.1667 20.9997 16.73 20.9997 19.8334V23.3334H2.33301V19.8334C2.33301 16.73 8.55134 15.1667 11.6663 15.1667ZM11.6663 4.66669C12.904 4.66669 14.091 5.15835 14.9662 6.03352C15.8413 6.90869 16.333 8.09568 16.333 9.33335C16.333 10.571 15.8413 11.758 14.9662 12.6332C14.091 13.5084 12.904 14 11.6663 14C10.4287 14 9.24168 13.5084 8.36651 12.6332C7.49134 11.758 6.99967 10.571 6.99967 9.33335C6.99967 8.09568 7.49134 6.90869 8.36651 6.03352C9.24168 5.15835 10.4287 4.66669 11.6663 4.66669M11.6663 17.3834C8.20134 17.3834 4.54967 19.0867 4.54967 19.8334V21.1167H18.783V19.8334C18.783 19.0867 15.1313 17.3834 11.6663 17.3834M11.6663 6.88335C11.0166 6.88335 10.3934 7.14148 9.93393 7.60094C9.47447 8.06041 9.21634 8.68357 9.21634 9.33335C9.21634 9.98313 9.47447 10.6063 9.93393 11.0658C10.3934 11.5252 11.0166 11.7834 11.6663 11.7834C12.3161 11.7834 12.9393 11.5252 13.3988 11.0658C13.8582 10.6063 14.1163 9.98313 14.1163 9.33335C14.1163 8.68357 13.8582 8.06041 13.3988 7.60094C12.9393 7.14148 12.3161 6.88335 11.6663 6.88335V6.88335Z" fill="black"/>
</svg>
